<svg width="741" height="278" viewBox="0 0 741 278" fill="none" xmlns="http://www.w3.org/2000/svg">
<path d="M22 190C22 193.866 18.866 197 15 197H7C3.13401 197 0 193.866 0 190L0 134C0 130.134 3.13401 127 7 127H15C18.866 127 22 130.134 22 134L22 190Z" fill="#4361EE"/>
<path d="M150 190C150 193.866 146.866 197 143 197H135C131.134 197 128 193.866 128 190V134C128 130.134 131.134 127 135 127H143C146.866 127 150 130.134 150 134V190Z" fill="#4361EE"/>
<path d="M22 92C22 95.866 18.866 99 15 99H7C3.13401 99 0 95.866 0 92L0 36C0 32.134 3.13401 29 7 29H15C18.866 29 22 32.134 22 36L22 92Z" fill="#4361EE"/>
<path d="M143.611 177.835C146.109 180.786 145.742 185.204 142.79 187.701L137.006 192.596C134.055 195.093 129.639 194.726 127.141 191.776L4.84633 47.3202C2.34792 44.369 2.71551 39.9512 5.66728 37.4535L11.452 32.5588C14.4027 30.062 18.8186 30.4294 21.3161 33.3795L143.611 177.835Z" fill="#4361EE"/>
<path d="M128 36C128 32.134 131.134 29 135 29H143C146.866 29 150 32.134 150 36V92C150 95.866 146.866 99 143 99H135C131.134 99 128 95.866 128 92V36Z" fill="#4361EE"/>
<path d="M150.003 43.9902C150.005 47.8573 146.871 50.9934 143.004 50.9939L96.572 50.9996C94.8475 50.9998 93.1836 50.3634 91.8994 49.2125L82.9813 41.2204C78.1985 36.9343 81.2299 29.0082 87.6521 29.0074L142.998 29.0007C146.863 29.0003 149.997 32.1321 149.999 35.997L150.003 43.9902Z" fill="#4361EE"/>
<path d="M67.6953 185.208C72.2161 189.583 69.1185 197.237 62.827 197.237H7C3.13401 197.237 0 194.103 0 190.237V182.237C0 178.371 3.13401 175.237 7 175.237H54.5617C56.3787 175.237 58.1245 175.944 59.4301 177.208L67.6953 185.208Z" fill="#4361EE"/>
<path d="M188.852 105.203C190.544 129.552 191.977 157.742 193.148 189.773C192.367 193.81 189.242 195.828 183.773 195.828C182.341 195.828 180.844 195.568 179.281 195.047C177.849 194.396 176.938 193.549 176.547 192.508V105.203H188.852ZM170.688 78.6406C170.688 74.0833 173.357 71.8047 178.695 71.8047C182.211 71.8047 185.076 72.5859 187.289 74.1484C187.68 75.5807 187.875 77.013 187.875 78.4453C187.875 79.7474 187.354 81.0495 186.312 82.3516C185.271 83.6536 183.708 84.3047 181.625 84.3047C179.542 84.3047 177.458 83.849 175.375 82.9375C173.292 81.8958 171.729 80.4635 170.688 78.6406ZM280.453 176.492C285.792 174.279 291 172.26 296.078 170.438C301.156 168.615 305.974 167.703 310.531 167.703C315.219 167.703 317.562 169.135 317.562 172C317.562 172.651 317.367 173.693 316.977 175.125C316.716 176.427 314.958 178.055 311.703 180.008C308.578 181.831 304.672 183.589 299.984 185.281C295.427 186.974 290.414 188.536 284.945 189.969C279.477 191.401 274.138 192.638 268.93 193.68C258.122 195.893 250.44 197 245.883 197C241.326 197 236.378 196.479 231.039 195.438C225.831 194.396 220.948 192.703 216.391 190.359C205.844 184.891 200.57 176.818 200.57 166.141C200.57 165.359 200.57 163.797 200.57 161.453C200.57 159.109 201.547 155.789 203.5 151.492C205.453 147.065 208.383 142.703 212.289 138.406C216.195 133.979 220.753 129.943 225.961 126.297C236.898 118.484 248.357 113.406 260.336 111.062C264.503 110.151 267.953 109.695 270.688 109.695C273.552 109.695 275.896 109.76 277.719 109.891C279.542 109.891 281.43 110.021 283.383 110.281C285.336 110.411 287.029 110.867 288.461 111.648C291.846 113.341 293.539 116.661 293.539 121.609C293.539 124.734 291.326 127.794 286.898 130.789C285.727 131.57 284.685 132.286 283.773 132.938C283.122 129.943 282.276 127.404 281.234 125.32C280.193 123.237 277.914 122.195 274.398 122.195C259.034 125.451 245.818 130.333 234.75 136.844C222.25 144.266 216 152.078 216 160.281C216 161.193 216.065 162.169 216.195 163.211C216.195 171.544 219.385 177.469 225.766 180.984C230.583 183.589 236.768 184.891 244.32 184.891C252.003 184.891 258.643 184.044 264.242 182.352C269.841 180.529 275.245 178.576 280.453 176.492ZM332.992 159.891C332.992 144.526 339.633 132.156 352.914 122.781C363.461 115.359 376.156 110.867 391 109.305C391.781 109.305 393.604 109.305 396.469 109.305C399.333 109.305 403.174 110.151 407.992 111.844C418.669 115.49 425.961 121.935 429.867 131.18C431.43 134.826 432.211 137.951 432.211 140.555C432.211 143.029 432.146 144.786 432.016 145.828C432.016 162.104 425.831 174.93 413.461 184.305C402.003 192.898 387.68 197.195 370.492 197.195C358.122 197.195 348.747 194.331 342.367 188.602C336.117 182.872 332.992 173.302 332.992 159.891ZM346.469 164.578C346.469 172.651 348.617 178.12 352.914 180.984C356.169 183.068 361.638 184.109 369.32 184.109C377.003 184.109 383.773 183.523 389.633 182.352C395.492 181.18 400.701 179.161 405.258 176.297C415.023 170.047 419.906 160.346 419.906 147.195C419.906 139.383 417.823 133.003 413.656 128.055C409.099 122.716 403.109 120.047 395.688 120.047C390.609 120.958 385.466 121.935 380.258 122.977C375.18 124.018 370.362 126.036 365.805 129.031C355.909 135.411 349.464 147.26 346.469 164.578ZM441.781 83.7188L441.195 58.5234C441.195 56.4401 441.911 54.8125 443.344 53.6406C444.776 52.4688 446.534 51.8828 448.617 51.8828C450.701 51.8828 452.589 52.4688 454.281 53.6406C455.974 54.6823 456.625 56.1797 456.234 58.1328L457.602 142.508C465.805 131.57 476.872 122.391 490.805 114.969C502.393 108.719 512.549 105.594 521.273 105.594C528.956 105.594 534.88 108.068 539.047 113.016C542.172 116.922 543.734 122.13 543.734 128.641C543.734 135.021 542.497 140.62 540.023 145.438C537.68 150.125 534.555 154.682 530.648 159.109C526.742 163.406 522.25 167.443 517.172 171.219C512.094 174.995 506.951 178.38 501.742 181.375C491.846 187.104 482.081 191.857 472.445 195.633C471.664 195.372 470.362 195.307 468.539 195.438C466.716 195.568 464.503 195.633 461.898 195.633C454.867 195.633 448.682 194.786 443.344 193.094C442.042 180.724 441.391 161.909 441.391 136.648L441.781 83.7188ZM458.188 179.617C458.188 181.049 459.49 181.766 462.094 181.766C464.828 181.766 468.148 181.245 472.055 180.203C475.961 179.161 480.648 177.404 486.117 174.93C491.716 172.326 497.315 169.005 502.914 164.969C515.935 155.724 525.766 144.852 532.406 132.352C530.714 124.93 525.635 121.219 517.172 121.219C509.49 121.219 500.831 124.083 491.195 129.812C477.523 138.016 467.758 148.172 461.898 160.281C459.424 165.099 458.188 169.982 458.188 174.93C458.188 176.232 458.188 177.273 458.188 178.055C458.188 178.836 458.188 179.357 458.188 179.617ZM557.797 159.891C557.797 144.526 564.438 132.156 577.719 122.781C588.266 115.359 600.961 110.867 615.805 109.305C616.586 109.305 618.409 109.305 621.273 109.305C624.138 109.305 627.979 110.151 632.797 111.844C643.474 115.49 650.766 121.935 654.672 131.18C656.234 134.826 657.016 137.951 657.016 140.555C657.016 143.029 656.951 144.786 656.82 145.828C656.82 162.104 650.635 174.93 638.266 184.305C626.807 192.898 612.484 197.195 595.297 197.195C582.927 197.195 573.552 194.331 567.172 188.602C560.922 182.872 557.797 173.302 557.797 159.891ZM571.273 164.578C571.273 172.651 573.422 178.12 577.719 180.984C580.974 183.068 586.443 184.109 594.125 184.109C601.807 184.109 608.578 183.523 614.438 182.352C620.297 181.18 625.505 179.161 630.062 176.297C639.828 170.047 644.711 160.346 644.711 147.195C644.711 139.383 642.628 133.003 638.461 128.055C633.904 122.716 627.914 120.047 620.492 120.047C615.414 120.958 610.271 121.935 605.062 122.977C599.984 124.018 595.167 126.036 590.609 129.031C580.714 135.411 574.268 147.26 571.273 164.578ZM694.906 178.25L695.297 147C695.297 142.052 694.841 137.82 693.93 134.305H663.656L663.266 120.828H692.562V70.4375C692.953 69.2656 693.734 68.0938 694.906 66.9219C696.729 65.099 698.227 64.1875 699.398 64.1875C700.701 64.1875 701.807 64.3177 702.719 64.5781C703.63 64.8385 704.607 65.75 705.648 67.3125C707.732 75.9062 708.773 88.862 708.773 106.18C708.773 110.477 708.969 114.708 709.359 118.875C713.526 118.354 717.693 118.094 721.859 118.094C721.859 118.094 725.245 118.094 732.016 118.094C734.49 118.094 736.768 117.964 738.852 117.703L738.266 131.766L709.75 130.984L710.727 198.367C708.383 199.409 706.365 199.93 704.672 199.93C698.161 199.93 694.906 192.703 694.906 178.25Z" fill="#4361EE"/>
</svg>
