<svg width="731" height="294" viewBox="0 0 731 294" fill="none" xmlns="http://www.w3.org/2000/svg">
<path d="M22 209C22 212.866 18.866 216 15 216H7C3.13401 216 0 212.866 0 209L0 153C0 149.134 3.13401 146 7 146H15C18.866 146 22 149.134 22 153L22 209Z" fill="#4361EE"/>
<path d="M150 209C150 212.866 146.866 216 143 216H135C131.134 216 128 212.866 128 209V153C128 149.134 131.134 146 135 146H143C146.866 146 150 149.134 150 153V209Z" fill="#4361EE"/>
<path d="M22 111C22 114.866 18.866 118 15 118H7C3.13401 118 0 114.866 0 111L0 55C0 51.134 3.13401 48 7 48H15C18.866 48 22 51.134 22 55L22 111Z" fill="#4361EE"/>
<path d="M143.611 196.835C146.109 199.786 145.742 204.204 142.79 206.701L137.006 211.596C134.055 214.093 129.639 213.726 127.141 210.776L4.84633 66.3202C2.34792 63.369 2.71551 58.9512 5.66728 56.4535L11.452 51.5588C14.4027 49.062 18.8186 49.4294 21.3161 52.3795L143.611 196.835Z" fill="#4361EE"/>
<path d="M128 55C128 51.134 131.134 48 135 48H143C146.866 48 150 51.134 150 55V111C150 114.866 146.866 118 143 118H135C131.134 118 128 114.866 128 111V55Z" fill="#4361EE"/>
<path d="M150.003 62.9902C150.005 66.8573 146.871 69.9934 143.004 69.9939L96.572 69.9996C94.8475 69.9998 93.1836 69.3634 91.8994 68.2125L82.9813 60.2204C78.1985 55.9343 81.2299 48.0082 87.6521 48.0074L142.998 48.0007C146.863 48.0003 149.997 51.1321 149.999 54.997L150.003 62.9902Z" fill="#4361EE"/>
<path d="M67.6953 204.208C72.2161 208.583 69.1185 216.237 62.827 216.237H7C3.13401 216.237 0 213.103 0 209.237V201.237C0 197.371 3.13401 194.237 7 194.237H54.5617C56.3787 194.237 58.1245 194.944 59.4301 196.208L67.6953 204.208Z" fill="#4361EE"/>
<path d="M177.6 93.2C177.6 89.3333 178.933 86.0667 181.6 83.4C184.4 80.7333 187.867 79.4 192 79.4C196.267 79.4 199.667 80.7333 202.2 83.4C204.867 86.0667 206.2 89.3333 206.2 93.2C206.2 96.9333 204.867 100.2 202.2 103C199.667 105.667 196.267 107 192 107C187.867 107 184.4 105.667 181.6 103C178.933 100.2 177.6 96.9333 177.6 93.2ZM179.6 163.2H204.4V215.6C203.333 216 201.8 216.333 199.8 216.6C197.8 217 195.6 217.2 193.2 217.2C188.667 217.2 185.267 216.4 183 214.8C180.733 213.067 179.6 210.067 179.6 205.8V163.2ZM204.4 175.8H179.6V122.2C180.667 121.8 182.2 121.467 184.2 121.2C186.333 120.8 188.6 120.6 191 120.6C195.667 120.6 199.067 121.467 201.2 123.2C203.333 124.8 204.4 127.8 204.4 132.2V175.8ZM279.548 138.4C271.548 138.4 264.815 141 259.348 146.2C254.015 151.4 251.348 159 251.348 169C251.348 178.867 253.948 186.333 259.148 191.4C264.348 196.467 271.082 199 279.348 199C284.282 199 288.415 198.4 291.748 197.2C295.215 195.867 298.215 194.467 300.748 193C302.748 194.2 304.282 195.667 305.348 197.4C306.548 199 307.148 201 307.148 203.4C307.148 207.933 304.415 211.667 298.948 214.6C293.482 217.4 286.282 218.8 277.348 218.8C267.215 218.8 258.282 217 250.548 213.4C242.948 209.667 236.948 204.067 232.548 196.6C228.282 189.133 226.148 179.933 226.148 169C226.148 157.667 228.415 148.267 232.948 140.8C237.615 133.333 243.748 127.8 251.348 124.2C259.082 120.467 267.548 118.6 276.748 118.6C285.548 118.6 292.615 120.133 297.948 123.2C303.282 126.267 305.948 130.067 305.948 134.6C305.948 136.6 305.415 138.467 304.348 140.2C303.282 141.933 302.015 143.333 300.548 144.4C297.882 142.8 294.882 141.4 291.548 140.2C288.215 139 284.215 138.4 279.548 138.4ZM417.889 168.6C417.889 178.867 415.889 187.8 411.889 195.4C407.889 202.867 402.222 208.667 394.889 212.8C387.689 216.8 379.156 218.8 369.289 218.8C359.422 218.8 350.822 216.8 343.489 212.8C336.156 208.667 330.422 202.867 326.289 195.4C322.289 187.933 320.289 179 320.289 168.6C320.289 158.333 322.356 149.467 326.489 142C330.622 134.533 336.356 128.8 343.689 124.8C351.022 120.667 359.556 118.6 369.289 118.6C379.022 118.6 387.489 120.667 394.689 124.8C402.022 128.8 407.689 134.6 411.689 142.2C415.822 149.667 417.889 158.467 417.889 168.6ZM369.289 138.2C361.956 138.2 356.156 140.867 351.889 146.2C347.756 151.533 345.689 159 345.689 168.6C345.689 178.467 347.756 186.067 351.889 191.4C356.022 196.6 361.822 199.2 369.289 199.2C376.622 199.2 382.356 196.533 386.489 191.2C390.622 185.867 392.689 178.333 392.689 168.6C392.689 159.133 390.622 151.733 386.489 146.4C382.356 140.933 376.622 138.2 369.289 138.2ZM486.356 118.6C494.89 118.6 502.556 120.467 509.356 124.2C516.29 127.8 521.756 133.333 525.756 140.8C529.756 148.133 531.756 157.333 531.756 168.4C531.756 179.6 529.623 188.933 525.356 196.4C521.223 203.867 515.356 209.467 507.756 213.2C500.29 216.933 491.556 218.8 481.556 218.8C473.956 218.8 467.29 217.867 461.556 216C455.956 214.267 451.223 212.2 447.356 209.8C444.556 207.8 442.49 205.8 441.156 203.8C439.956 201.667 439.356 199.067 439.356 196V131.4H463.956V194.4C465.69 195.6 468.023 196.733 470.956 197.8C474.023 198.733 477.49 199.2 481.356 199.2C488.956 199.2 495.023 196.667 499.556 191.6C504.223 186.533 506.556 178.8 506.556 168.4C506.556 157.867 504.29 150.2 499.756 145.4C495.223 140.6 489.29 138.2 481.956 138.2C477.29 138.2 473.156 139.067 469.556 140.8C465.956 142.533 462.89 144.533 460.356 146.8L458.756 126.8C461.823 124.933 465.623 123.133 470.156 121.4C474.823 119.533 480.223 118.6 486.356 118.6ZM463.956 137H439.356V86C440.423 85.7333 441.956 85.4 443.956 85C445.956 84.6 448.156 84.4 450.556 84.4C455.223 84.4 458.623 85.2667 460.756 87C462.89 88.6 463.956 91.5333 463.956 95.8V137ZM645.623 168.6C645.623 178.867 643.623 187.8 639.623 195.4C635.623 202.867 629.957 208.667 622.623 212.8C615.423 216.8 606.89 218.8 597.023 218.8C587.157 218.8 578.557 216.8 571.223 212.8C563.89 208.667 558.157 202.867 554.023 195.4C550.023 187.933 548.023 179 548.023 168.6C548.023 158.333 550.09 149.467 554.223 142C558.357 134.533 564.09 128.8 571.423 124.8C578.757 120.667 587.29 118.6 597.023 118.6C606.757 118.6 615.223 120.667 622.423 124.8C629.757 128.8 635.423 134.6 639.423 142.2C643.557 149.667 645.623 158.467 645.623 168.6ZM597.023 138.2C589.69 138.2 583.89 140.867 579.623 146.2C575.49 151.533 573.423 159 573.423 168.6C573.423 178.467 575.49 186.067 579.623 191.4C583.757 196.6 589.557 199.2 597.023 199.2C604.357 199.2 610.09 196.533 614.223 191.2C618.357 185.867 620.423 178.333 620.423 168.6C620.423 159.133 618.357 151.733 614.223 146.4C610.09 140.933 604.357 138.2 597.023 138.2ZM666.891 163.2H691.491V186.8C691.491 191.2 692.757 194.333 695.291 196.2C697.957 198.067 701.691 199 706.491 199C708.624 199 710.891 198.733 713.291 198.2C715.824 197.667 717.957 197 719.691 196.2C720.624 197.267 721.491 198.533 722.291 200C723.091 201.467 723.491 203.267 723.491 205.4C723.491 209.267 721.624 212.467 717.891 215C714.291 217.533 708.624 218.8 700.891 218.8C690.357 218.8 682.024 216.467 675.891 211.8C669.891 207 666.891 199.267 666.891 188.6V163.2ZM681.891 142.8V123.4H721.091C721.624 124.333 722.157 125.667 722.691 127.4C723.357 129.133 723.691 130.933 723.691 132.8C723.691 136.133 722.891 138.667 721.291 140.4C719.691 142 717.624 142.8 715.091 142.8H681.891ZM691.491 168.6H666.891V96.6C667.957 96.2 669.491 95.8 671.491 95.4C673.624 95 675.824 94.8 678.091 94.8C682.757 94.8 686.157 95.6667 688.291 97.4C690.424 99 691.491 101.933 691.491 106.2V168.6Z" fill="#4361EE"/>
</svg>
