<svg width="982" height="271" viewBox="0 0 982 271" fill="none" xmlns="http://www.w3.org/2000/svg">
<g clip-path="url(#clip0_108_4)">
<path d="M270.6 81.2C266.467 81.2 263 79.8 260.2 77C257.4 74.2 256 70.7333 256 66.6C256 62.4667 257.4 59 260.2 56.2C263 53.4 266.467 52 270.6 52C274.6 52 278 53.4 280.8 56.2C283.6 59 285 62.4667 285 66.6C285 70.7333 283.6 74.2 280.8 77C278 79.8 274.6 81.2 270.6 81.2ZM281.8 95.8V206H259V95.8H281.8ZM304.134 150.8C304.134 139.467 306.401 129.533 310.934 121C315.601 112.333 322.001 105.667 330.134 101C338.268 96.3333 347.601 94 358.134 94C371.468 94 382.468 97.2 391.134 103.6C399.934 109.867 405.868 118.867 408.934 130.6H384.334C382.334 125.133 379.134 120.867 374.734 117.8C370.334 114.733 364.801 113.2 358.134 113.2C348.801 113.2 341.334 116.533 335.734 123.2C330.268 129.733 327.534 138.933 327.534 150.8C327.534 162.667 330.268 171.933 335.734 178.6C341.334 185.267 348.801 188.6 358.134 188.6C371.334 188.6 380.068 182.8 384.334 171.2H408.934C405.734 182.4 399.734 191.333 390.934 198C382.134 204.533 371.201 207.8 358.134 207.8C347.601 207.8 338.268 205.467 330.134 200.8C322.001 196 315.601 189.333 310.934 180.8C306.401 172.133 304.134 162.133 304.134 150.8ZM479.456 207.8C469.056 207.8 459.656 205.467 451.256 200.8C442.856 196 436.256 189.333 431.456 180.8C426.656 172.133 424.256 162.133 424.256 150.8C424.256 139.6 426.723 129.667 431.656 121C436.59 112.333 443.323 105.667 451.856 101C460.39 96.3333 469.923 94 480.456 94C490.99 94 500.523 96.3333 509.056 101C517.59 105.667 524.323 112.333 529.256 121C534.19 129.667 536.656 139.6 536.656 150.8C536.656 162 534.123 171.933 529.056 180.6C523.99 189.267 517.056 196 508.256 200.8C499.59 205.467 489.99 207.8 479.456 207.8ZM479.456 188C485.323 188 490.79 186.6 495.856 183.8C501.056 181 505.256 176.8 508.456 171.2C511.656 165.6 513.256 158.8 513.256 150.8C513.256 142.8 511.723 136.067 508.656 130.6C505.59 125 501.523 120.8 496.456 118C491.39 115.2 485.923 113.8 480.056 113.8C474.19 113.8 468.723 115.2 463.656 118C458.723 120.8 454.79 125 451.856 130.6C448.923 136.067 447.456 142.8 447.456 150.8C447.456 162.667 450.456 171.867 456.456 178.4C462.59 184.8 470.256 188 479.456 188ZM581.995 112.2C585.862 106.867 591.129 102.533 597.795 99.2C604.595 95.7333 612.129 94 620.395 94C630.129 94 638.929 96.3333 646.795 101C654.662 105.667 660.862 112.333 665.395 121C669.929 129.533 672.195 139.333 672.195 150.4C672.195 161.467 669.929 171.4 665.395 180.2C660.862 188.867 654.595 195.667 646.595 200.6C638.729 205.4 629.995 207.8 620.395 207.8C611.862 207.8 604.262 206.133 597.595 202.8C591.062 199.467 585.862 195.2 581.995 190V206H559.195V58H581.995V112.2ZM648.995 150.4C648.995 142.8 647.395 136.267 644.195 130.8C641.129 125.2 636.995 121 631.795 118.2C626.729 115.267 621.262 113.8 615.395 113.8C609.662 113.8 604.195 115.267 598.995 118.2C593.929 121.133 589.795 125.4 586.595 131C583.529 136.6 581.995 143.2 581.995 150.8C581.995 158.4 583.529 165.067 586.595 170.8C589.795 176.4 593.929 180.667 598.995 183.6C604.195 186.533 609.662 188 615.395 188C621.262 188 626.729 186.533 631.795 183.6C636.995 180.533 641.129 176.133 644.195 170.4C647.395 164.667 648.995 158 648.995 150.4ZM742.542 207.8C732.142 207.8 722.742 205.467 714.342 200.8C705.942 196 699.342 189.333 694.542 180.8C689.742 172.133 687.342 162.133 687.342 150.8C687.342 139.6 689.809 129.667 694.742 121C699.676 112.333 706.409 105.667 714.942 101C723.476 96.3333 733.009 94 743.542 94C754.076 94 763.609 96.3333 772.142 101C780.676 105.667 787.409 112.333 792.342 121C797.276 129.667 799.742 139.6 799.742 150.8C799.742 162 797.209 171.933 792.142 180.6C787.076 189.267 780.142 196 771.342 200.8C762.676 205.467 753.076 207.8 742.542 207.8ZM742.542 188C748.409 188 753.876 186.6 758.942 183.8C764.142 181 768.342 176.8 771.542 171.2C774.742 165.6 776.342 158.8 776.342 150.8C776.342 142.8 774.809 136.067 771.742 130.6C768.676 125 764.609 120.8 759.542 118C754.476 115.2 749.009 113.8 743.142 113.8C737.276 113.8 731.809 115.2 726.742 118C721.809 120.8 717.876 125 714.942 130.6C712.009 136.067 710.542 142.8 710.542 150.8C710.542 162.667 713.542 171.867 719.542 178.4C725.676 184.8 733.342 188 742.542 188ZM848.881 114.4V175.4C848.881 179.533 849.815 182.533 851.681 184.4C853.681 186.133 857.015 187 861.681 187H875.681V206H857.681C847.415 206 839.548 203.6 834.081 198.8C828.615 194 825.881 186.2 825.881 175.4V114.4H812.881V95.8H825.881V68.4H848.881V95.8H875.681V114.4H848.881Z" fill="#4361EE"/>
<path d="M93 206H71V141H93V206Z" fill="#4361EE"/>
<path d="M226 206H204V141H226V206Z" fill="#4361EE"/>
<path d="M93 106H71V41H93V106Z" fill="#4361EE"/>
<path d="M220.402 191.888L203.932 205.828L76.4748 55.2551L92.9459 41.316L220.402 191.888Z" fill="#4361EE"/>
<path d="M204.006 41.7428H226.006V106.743H204.006V41.7428Z" fill="#4361EE"/>
<path d="M226 62.9932L173.818 63L150.999 41.0098L225.989 41L226 62.9932Z" fill="#4361EE"/>
<path d="M146 206.237H71V184.237H124.725L146 206.237Z" fill="#4361EE"/>
</g>
<defs>
<clipPath id="clip0_108_4">
<rect width="982" height="271" fill="white"/>
</clipPath>
</defs>
</svg>
