<svg width="150" height="170" viewBox="0 0 150 170" fill="none" xmlns="http://www.w3.org/2000/svg">
<path d="M22 162C22 165.866 18.866 169 15 169H7C3.13401 169 0 165.866 0 162L0 106C0 102.134 3.13401 99 7 99H15C18.866 99 22 102.134 22 106L22 162Z" fill="#4361EE"/>
<path d="M150 162C150 165.866 146.866 169 143 169H135C131.134 169 128 165.866 128 162V106C128 102.134 131.134 99 135 99H143C146.866 99 150 102.134 150 106V162Z" fill="#4361EE"/>
<path d="M22 64C22 67.866 18.866 71 15 71H7C3.13401 71 0 67.866 0 64L0 8C0 4.13401 3.13401 1 7 1L15 1C18.866 1 22 4.13401 22 8L22 64Z" fill="#4361EE"/>
<path d="M143.611 149.835C146.109 152.786 145.742 157.204 142.79 159.701L137.006 164.596C134.055 167.093 129.639 166.726 127.141 163.776L4.84633 19.3202C2.34792 16.369 2.71551 11.9512 5.66728 9.45352L11.452 4.55879C14.4027 2.06203 18.8186 2.42945 21.3161 5.37953L143.611 149.835Z" fill="#4361EE"/>
<path d="M128 8C128 4.13401 131.134 0.999996 135 0.999996H143C146.866 0.999996 150 4.134 150 8V64C150 67.866 146.866 71 143 71H135C131.134 71 128 67.866 128 64V8Z" fill="#4361EE"/>
<path d="M150.003 15.9902C150.005 19.8573 146.871 22.9934 143.004 22.9939L96.572 22.9996C94.8475 22.9998 93.1836 22.3634 91.8994 21.2125L82.9813 13.2204C78.1985 8.93429 81.2299 1.00821 87.6521 1.00744L142.998 1.00073C146.863 1.00026 149.997 4.13214 149.999 7.997L150.003 15.9902Z" fill="#4361EE"/>
<path d="M67.6953 157.208C72.2161 161.583 69.1185 169.237 62.827 169.237H7C3.13401 169.237 0 166.103 0 162.237V154.237C0 150.371 3.13401 147.237 7 147.237H54.5617C56.3787 147.237 58.1245 147.944 59.4301 149.208L67.6953 157.208Z" fill="#4361EE"/>
</svg>
